<?xml version="1.0" encoding="UTF-8"?><svg id="Layer_2" xmlns="http://www.w3.org/2000/svg" xmlns:xlink="http://www.w3.org/1999/xlink" viewBox="0 0 36.71 44.33"><defs><style>.cls-1{fill:#916ec1;}.cls-2{fill:#a685d4;}.cls-3{fill:none;filter:url(#drop-shadow-1);}.cls-4{fill:#d8b4b9;}.cls-5{fill:#f0e6e6;}.cls-6{fill:#fdf3f8;}.cls-7{fill:#815d62;}.cls-8{fill:#9a7579;}.cls-9{fill:#8f6a72;}</style><filter id="drop-shadow-1" filterUnits="userSpaceOnUse"><feOffset dx="1" dy="1"/><feGaussianBlur result="blur" stdDeviation="2"/><feFlood flood-color="#000" flood-opacity=".1"/><feComposite in2="blur" operator="in"/><feComposite in="SourceGraphic"/></filter></defs><g id="OBJECTS"><g class="cls-3"><path class="cls-6" d="m33.25,0H13.85c-1.91,0-3.46,1.55-3.46,3.46v37.41c0,1.91,1.55,3.46,3.46,3.46h19.4c1.91,0,3.46-1.55,3.46-3.46V3.46c0-1.91-1.55-3.46-3.46-3.46Z"/><path class="cls-5" d="m36.71,3.46c0-1.91-1.55-3.46-3.46-3.46H13.85c-1.91,0-3.46,1.55-3.46,3.46v37.41c0,1.64,1.15,3.02,2.69,3.37l23.64-23.64V3.46Z"/><polygon class="cls-5" points="23.9 44.33 36.71 31.52 36.71 25.8 18.18 44.33 23.9 44.33"/><path class="cls-8" d="m36.71,37.41H10.39v3.46c0,1.91,1.55,3.46,3.46,3.46h19.4c1.91,0,3.46-1.55,3.46-3.46v-3.46Z"/><path class="cls-8" d="m33.25,0H13.85c-1.91,0-3.46,1.55-3.46,3.46v2.08h26.32v-2.08c0-1.91-1.55-3.46-3.46-3.46Z"/><path class="cls-4" d="m24.94,41.56h-2.77c-.38,0-.69-.31-.69-.69s.31-.69.69-.69h2.77c.38,0,.69.31.69.69s-.31.69-.69.69Z"/><path class="cls-7" d="m23.64,3.46h-.09c-.38,0-.69-.31-.69-.69s.31-.69.69-.69h.09c.38,0,.69.31.69.69s-.31.69-.69.69Z"/><path class="cls-7" d="m26.41,3.46h-.09c-.38,0-.69-.31-.69-.69s.31-.69.69-.69h.09c.38,0,.69.31.69.69s-.31.69-.69.69Z"/><path class="cls-7" d="m20.87,3.46h-.09c-.38,0-.69-.31-.69-.69s.31-.69.69-.69h.09c.38,0,.69.31.69.69s-.31.69-.69.69Z"/><rect class="cls-4" x="10.39" y="5.54" width="2.77" height="31.86"/><path class="cls-9" d="m10.39,40.87c0,1.44.93,2.75,2.27,3.25.38.14.79.21,1.19.21h2.77c-1.63,0-2.99-1.12-3.36-2.64-.07-.27-.1-.55-.1-.82v-3.46h-2.77v3.46Z"/><path class="cls-9" d="m13.16,3.46c0-1.91,1.55-3.46,3.46-3.46h-2.77c-1.91,0-3.46,1.55-3.46,3.46v2.08h2.77v-2.08Z"/><path class="cls-2" d="m22.17,18.01c0-5.35-4.97-9.7-11.08-9.7S0,12.66,0,18.01s4.97,9.7,11.08,9.7c1.13,0,2.25-.15,3.32-.44l3.93,2.42c.27.16.62.13.84-.09.2-.19.27-.49.17-.74l-1.25-3.33c2.56-1.83,4.06-4.6,4.06-7.51Z"/><path class="cls-1" d="m18.97,27.83l-3.18-1.95c-1.07.29-2.19.44-3.32.44-6.11,0-11.08-4.35-11.08-9.7,0-2.11.77-4.06,2.09-5.66-2.14,1.77-3.47,4.27-3.47,7.04,0,5.35,4.97,9.7,11.08,9.7,1.13,0,2.25-.15,3.32-.44l3.93,2.42c.25.15.58.13.8-.06.23-.19.31-.5.21-.78l-.38-1.02Z"/><path class="cls-6" d="m12.47,16.62h-2.77c-.38,0-.69.31-.69.69v6.23c0,.38.31.69.69.69h2.77c.38,0,.69-.31.69-.69v-6.23c0-.38-.31-.69-.69-.69Z"/><path class="cls-6" d="m11.08,15.93c1.15,0,2.08-.93,2.08-2.08s-.93-2.08-2.08-2.08-2.08.93-2.08,2.08.93,2.08,2.08,2.08Z"/></g></g></svg>