<?xml version="1.0" encoding="UTF-8"?><svg id="Layer_2" xmlns="http://www.w3.org/2000/svg" xmlns:xlink="http://www.w3.org/1999/xlink" viewBox="0 0 22.17 44.33"><defs><style>.cls-1{fill:#916ec1;}.cls-2{fill:#f09f3d;}.cls-3{fill:none;filter:url(#drop-shadow-1);}.cls-4{fill:#7a54b0;}.cls-5{fill:#ee8746;}.cls-6{fill:#e861a8;}.cls-7{fill:#f4b77b;}</style><filter id="drop-shadow-1" filterUnits="userSpaceOnUse"><feOffset dx="1" dy="1"/><feGaussianBlur result="blur" stdDeviation="2"/><feFlood flood-color="#000" flood-opacity=".1"/><feComposite in2="blur" operator="in"/><feComposite in="SourceGraphic"/></filter></defs><g id="OBJECTS"><g class="cls-3"><path class="cls-6" d="m21.77,42.99L12.08,11.13c-.1-.44-.58-.74-1.01-.74-.42,0-.88.3-.98.74L.39,42.99c-.16.53.14,1.12.67,1.29.55.18,1.15-.13,1.32-.68l2.09-6.88h5.57v6.58c0,.57.47,1.04,1.04,1.04s1.04-.47,1.04-1.04v-6.58h5.57l2.09,6.88c.16.51.71.83,1.23.71.58-.14.93-.74.76-1.31Zm-9.65-24.58l2.62,8.6h-2.62v-8.6Zm-2.08,8.6h-2.62l2.62-8.6v8.6h0Zm-4.94,7.62l1.69-5.54h3.25v5.54h-4.94Zm7.02,0v-5.54h3.25l1.69,5.54h-4.94Z"/><path class="cls-1" d="m11.08,8.31c-1.53,0-2.77,1.24-2.77,2.77s1.24,2.77,2.77,2.77,2.77-1.24,2.77-2.77-1.24-2.77-2.77-2.77Z"/><path class="cls-4" d="m11.08,9.7c-.76,0-1.39.62-1.39,1.39s.62,1.39,1.39,1.39,1.39-.62,1.39-1.39-.62-1.39-1.39-1.39Z"/><path class="cls-2" d="m18.16,14.61c-.48,0-.82-.5-.64-.95.33-.82.49-1.68.49-2.57,0-3.82-3.11-6.93-6.93-6.93s-6.93,3.11-6.93,6.93c0,.89.17,1.75.49,2.57.14.36-.03.76-.39.9-.36.14-.76-.03-.9-.39-.39-.98-.59-2.02-.59-3.09C2.77,6.5,6.5,2.77,11.08,2.77s8.31,3.73,8.31,8.31c0,1.07-.2,2.1-.59,3.09-.11.27-.37.44-.64.44Z"/><path class="cls-5" d="m20.73,15.64c-.48,0-.82-.5-.64-.95.46-1.15.69-2.36.69-3.6,0-5.35-4.35-9.7-9.7-9.7S1.39,5.74,1.39,11.08c0,1.24.23,2.46.69,3.6.14.36-.03.76-.39.9-.36.14-.76-.03-.9-.39-.52-1.31-.79-2.7-.79-4.12C0,4.97,4.97,0,11.08,0s11.08,4.97,11.08,11.08c0,1.42-.27,2.81-.79,4.12-.11.27-.37.44-.64.44Z"/><path class="cls-7" d="m15.58,13.58c-.48,0-.82-.5-.64-.95.2-.49.3-1.01.3-1.54,0-2.29-1.86-4.16-4.16-4.16s-4.16,1.86-4.16,4.16c0,.53.1,1.05.3,1.54.14.36-.03.76-.39.9-.36.14-.76-.03-.9-.39-.26-.66-.4-1.35-.4-2.06,0-3.06,2.49-5.54,5.54-5.54s5.54,2.49,5.54,5.54c0,.71-.13,1.4-.4,2.06-.11.27-.37.44-.64.44Z"/></g></g></svg>