<?xml version="1.0" encoding="UTF-8"?><svg id="Layer_2" xmlns="http://www.w3.org/2000/svg" xmlns:xlink="http://www.w3.org/1999/xlink" viewBox="0 0 44.33 41.56"><defs><style>.cls-1{fill:#a2a41d;}.cls-2{fill:#f09f3d;}.cls-3{fill:none;filter:url(#drop-shadow-1);}.cls-4{fill:#f0e6e6;}.cls-5{fill:#ee8746;}.cls-6{fill:#e861a8;}.cls-7{fill:#fdf3f8;}.cls-8{fill:#de499d;}.cls-9{fill:#ea6b25;}.cls-10{fill:#9a7579;}.cls-11{fill:#b6ba32;}</style><filter id="drop-shadow-1" filterUnits="userSpaceOnUse"><feOffset dx="1" dy="1"/><feGaussianBlur result="blur" stdDeviation="2"/><feFlood flood-color="#000" flood-opacity=".1"/><feComposite in2="blur" operator="in"/><feComposite in="SourceGraphic"/></filter></defs><g id="OBJECTS"><g class="cls-3"><path class="cls-6" d="m11.78,29.79h-4.16c-.38,0-.69.31-.69.69v4.16c0,.38.31.69.69.69h4.16c.38,0,.69-.31.69-.69v-4.16c0-.38-.31-.69-.69-.69Z"/><path class="cls-2" d="m32.56,15.24c-3.06,0-5.54,2.49-5.54,5.54s2.49,5.54,5.54,5.54,5.54-2.49,5.54-5.54-2.49-5.54-5.54-5.54Z"/><path class="cls-5" d="m32.56,24.24c-2.7,0-4.95-1.94-5.44-4.5-.06.34-.1.68-.1,1.04,0,3.06,2.49,5.54,5.54,5.54s5.54-2.49,5.54-5.54c0-.36-.03-.7-.1-1.04-.49,2.56-2.74,4.5-5.44,4.5Z"/><path class="cls-7" d="m28.58,2.8c-.3-.08-.62.05-.78.32-.02.03-1.74,2.92-4.67,5.77-2.67,2.59-6.92,5.67-12.05,5.67-.38,0-.69.31-.69.69v11.08c0,.38.31.69.69.69,5.12,0,9.38,3.08,12.05,5.67,2.94,2.85,4.66,5.74,4.67,5.77.13.22.36.34.6.34.06,0,.12,0,.18-.02.3-.08.51-.36.51-.67V3.46c0-.31-.21-.59-.51-.67Z"/><path class="cls-4" d="m28.63,35.29c-.31.11-.66-.02-.83-.3-.02-.03-1.74-1.54-4.67-4.38-2.67-2.59-6.92-5.67-12.05-5.67-.38,0-.69-.31-.69-.69v2.08c0,.38.31.69.69.69,5.12,0,9.38,3.08,12.05,5.67,2.94,2.85,4.66,5.74,4.67,5.77.13.22.36.34.6.34.06,0,.12,0,.18-.02.3-.08.51-.36.51-.67v-3.46c0,.29-.19.56-.46.65Z"/><path class="cls-11" d="m32.56,0h-4.16c-.38,0-.69.31-.69.69v40.18c0,.38.31.69.69.69h4.16c.38,0,.69-.31.69-.69V.69c0-.38-.31-.69-.69-.69Z"/><path class="cls-1" d="m32.56,38.79h-4.16c-.38,0-.69-.31-.69-.69v2.77c0,.38.31.69.69.69h4.16c.38,0,.69-.31.69-.69v-2.77c0,.38-.31.69-.69.69Z"/><path class="cls-6" d="m4.85,14.55h-1.39c-1.91,0-3.46,1.55-3.46,3.46v5.54c0,1.91,1.55,3.46,3.46,3.46h1.39c.38,0,.69-.31.69-.69v-11.08c0-.38-.31-.69-.69-.69Z"/><path class="cls-8" d="m3.46,24.94c-1.15,0-2.08-.93-2.08-2.08v-6.93c0-.26.03-.51.08-.75-.89.63-1.47,1.66-1.47,2.83v5.54c0,1.91,1.55,3.46,3.46,3.46h1.39c.38,0,.69-.31.69-.69v-1.39h-2.08Z"/><rect class="cls-11" x="4.85" y="14.55" width="6.93" height="12.47"/><rect class="cls-1" x="4.85" y="24.94" width="6.93" height="2.08"/><path class="cls-10" d="m4.85,37.41c0,.38.31.69.69.69h2.77c.31,0,.59-.21.67-.51l2.79-10.57h-6.93v10.39Z"/><path class="cls-9" d="m43.64,21.47h-2.08c-.38,0-.69-.31-.69-.69s.31-.69.69-.69h2.08c.38,0,.69.31.69.69s-.31.69-.69.69Z"/><path class="cls-9" d="m38.92,15.11c-.61,0-.92-.76-.49-1.18l1.47-1.47c.27-.27.71-.27.98,0,.27.27.27.71,0,.98l-1.47,1.47c-.14.14-.31.2-.49.2Z"/><path class="cls-9" d="m40.39,29.31c-.18,0-.35-.07-.49-.2l-1.47-1.47c-.27-.27-.27-.71,0-.98.27-.27.71-.27.98,0l1.47,1.47c.43.43.12,1.18-.49,1.18Z"/></g></g></svg>