<?xml version="1.0" encoding="UTF-8"?><svg id="Layer_2" xmlns="http://www.w3.org/2000/svg" xmlns:xlink="http://www.w3.org/1999/xlink" viewBox="0 0 44.33 44.33"><defs><style>.cls-1{fill:#f09f3d;}.cls-2{fill:none;filter:url(#drop-shadow-1);}.cls-3{fill:#f0e6e6;}.cls-4{fill:#ee8746;}.cls-5{fill:#f6c18f;}.cls-6{fill:#cdd03d;}.cls-7{fill:#f7cba1;}.cls-8{fill:#e861a8;}.cls-9{fill:#fdf3f8;}.cls-10{fill:#de499d;}.cls-11{fill:#8f6a72;}</style><filter id="drop-shadow-1" filterUnits="userSpaceOnUse"><feOffset dx="1" dy="1"/><feGaussianBlur result="blur" stdDeviation="2"/><feFlood flood-color="#000" flood-opacity=".1"/><feComposite in2="blur" operator="in"/><feComposite in="SourceGraphic"/></filter></defs><g id="OBJECTS"><g class="cls-2"><path class="cls-8" d="m37.84,6.49C33.65,2.31,28.09,0,22.17,0S10.68,2.31,6.49,6.49C2.31,10.68,0,16.25,0,22.17s2.31,11.49,6.49,15.67c4.19,4.19,9.75,6.49,15.67,6.49s11.49-2.31,15.67-6.49c4.19-4.19,6.49-9.75,6.49-15.67s-2.31-11.49-6.49-15.67Z"/><path class="cls-10" d="m36.37,7.96c-3.79-3.79-8.84-5.88-14.2-5.88s-10.41,2.09-14.2,5.88c-3.79,3.79-5.88,8.84-5.88,14.2s2.09,10.41,5.88,14.2,8.84,5.88,14.2,5.88,10.41-2.09,14.2-5.88c3.79-3.79,5.88-8.84,5.88-14.2s-2.09-10.41-5.88-14.2Z"/><path class="cls-9" d="m35.39,8.94c-3.53-3.53-8.23-5.48-13.22-5.48s-9.69,1.95-13.22,5.48c-3.53,3.53-5.48,8.23-5.48,13.22s1.95,9.69,5.48,13.22,8.23,5.48,13.22,5.48,9.69-1.95,13.22-5.48c3.53-3.53,5.48-8.23,5.48-13.22s-1.95-9.69-5.48-13.22Z"/><path class="cls-10" d="m22.17,5.54c.38,0,.69-.31.69-.69v-1.37c-.23,0-.46-.01-.69-.01s-.46,0-.69.01v1.37c0,.38.31.69.69.69Z"/><path class="cls-10" d="m13.51,7.86c.12,0,.24-.03.35-.09.33-.19.44-.61.25-.95l-.69-1.2c-.41.22-.81.45-1.2.69l.69,1.19c.13.22.36.35.6.35Z"/><path class="cls-10" d="m7.17,14.2c.24,0,.47-.12.6-.35.19-.33.08-.75-.25-.95l-1.19-.69c-.25.39-.48.79-.69,1.2l1.2.69c.11.06.23.09.35.09Z"/><path class="cls-10" d="m5.54,22.17c0-.38-.31-.69-.69-.69h-1.37c0,.23-.01.46-.01.69s0,.46.01.69h1.37c.38,0,.69-.31.69-.69Z"/><path class="cls-10" d="m7.77,30.48c-.19-.33-.61-.44-.95-.25l-1.2.69c.22.41.45.81.69,1.2l1.19-.69c.33-.19.44-.61.25-.95Z"/><path class="cls-10" d="m13.85,36.56c-.33-.19-.76-.08-.95.25l-.69,1.19c.39.25.79.48,1.2.69l.69-1.2c.19-.33.08-.76-.25-.95Z"/><path class="cls-10" d="m22.17,38.79c-.38,0-.69.31-.69.69v1.37c.23,0,.46.01.69.01s.46,0,.69-.01v-1.37c0-.38-.31-.69-.69-.69Z"/><path class="cls-10" d="m30.48,36.56c-.33.19-.44.61-.25.95l.69,1.2c.41-.22.81-.45,1.2-.69l-.69-1.19c-.19-.33-.61-.44-.95-.25Z"/><path class="cls-10" d="m36.56,30.48c-.19.33-.08.76.25.95l1.19.69c.25-.39.48-.79.69-1.2l-1.2-.69c-.33-.19-.75-.08-.95.25Z"/><path class="cls-10" d="m40.85,21.47h-1.37c-.38,0-.69.31-.69.69s.31.69.69.69h1.37c0-.23.01-.46.01-.69s0-.46-.01-.69Z"/><path class="cls-10" d="m36.56,13.85c.13.22.36.35.6.35.12,0,.24-.03.35-.09l1.2-.69c-.22-.41-.45-.81-.69-1.2l-1.19.69c-.33.19-.44.61-.25.95Z"/><path class="cls-10" d="m30.48,7.77c.11.06.23.09.35.09.24,0,.47-.12.6-.35l.69-1.19c-.39-.25-.79-.48-1.2-.69l-.69,1.2c-.19.33-.08.75.25.95Z"/><path class="cls-7" d="m28.49,11.78c-2.67,0-4.85,2.18-4.85,4.85s2.18,4.85,4.85,4.85,4.85-2.18,4.85-4.85-2.18-4.85-4.85-4.85Z"/><path class="cls-5" d="m24.94,16.62c0-2.45,1.83-4.49,4.2-4.8-.21-.03-.43-.04-.65-.04-2.67,0-4.85,2.18-4.85,4.85s2.18,4.85,4.85,4.85c.22,0,.44-.02.65-.04-2.37-.32-4.2-2.35-4.2-4.8Z"/><path class="cls-6" d="m31.26,21.47h-5.54c-1.53,0-2.77,1.24-2.77,2.77v7.62c0,.38.31.69.69.69h9.7c.38,0,.69-.31.69-.69v-7.62c0-1.53-1.24-2.77-2.77-2.77Z"/><path class="cls-11" d="m28.53,11.78l-6.2-.69c-.57-.06-.97.59-.65,1.07l1.13,1.69-1.13,1.69c-.3.45.03,1.08.58,1.08h7.25l1.85,2.72c.13.19.34.3.57.3h0c.23,0,.44-.11.57-.3.55-.81.84-1.75.84-2.73,0-2.66-2.15-4.83-4.81-4.85Z"/><polygon class="cls-9" points="27.1 21.47 27.79 23.55 29.18 23.55 29.87 21.47 27.1 21.47"/><polygon class="cls-9" points="29.18 23.55 29.87 28.4 28.49 29.79 27.1 28.4 27.79 23.55 29.18 23.55"/><polygon class="cls-3" points="29.18 23.55 27.79 23.55 27.7 24.24 29.28 24.24 29.18 23.55"/><path class="cls-1" d="m23.29,20.13c-.16-.24-.45-.35-.72-.29l-2.39.53c-1.33-1.47-3.32-2.34-5.4-2.34-3.88,0-7.04,2.93-7.04,6.53s3.16,6.53,7.04,6.53,7.04-2.93,7.04-6.53c0-.43-.05-.87-.14-1.29l1.61-2.36c.16-.23.16-.54,0-.78Z"/><path class="cls-4" d="m16.05,30.37c-3.88,0-7.04-2.93-7.04-6.53,0-2.11,1.09-3.99,2.77-5.18-2.39,1.05-4.04,3.3-4.04,5.9,0,3.6,3.16,6.53,7.04,6.53,1.61,0,3.09-.5,4.27-1.34-.91.4-1.93.62-3,.62Z"/><path class="cls-9" d="m12.39,21.23c-1.19,0-2.16,1.01-2.16,2.2v.31c0,.19.16.35.35.35h.69c.19,0,.35-.16.35-.35v-.35c0-.43.35-.77.77-.77.38,0,.77.24.77.77,0,.74-1.39,2.02-2.33,2.65-.28.19-.39.55-.25.87.12.25.38.4.66.4h2.96c.19,0,.35-.15.35-.35v-.69c0-.19-.16-.35-.35-.35h-1.04c.71-.71,1.39-1.61,1.39-2.53,0-1.23-.93-2.16-2.15-2.16Z"/><path class="cls-9" d="m18.57,24.75v-2.8c0-.27-.14-.53-.38-.65-.3-.15-.66-.06-.86.2l-2.64,3.52c-.19.25-.19.61.02.86.13.16.34.25.55.25h1.92v.83c0,.19.16.35.35.35h.69c.19,0,.35-.16.35-.35v-.83h.53c.19,0,.35-.16.35-.35v-.69c0-.19-.16-.35-.35-.35h-.53Zm-1.39,0h-.56l.56-.75v.75Z"/></g></g></svg>