<?xml version="1.0" encoding="UTF-8"?><svg id="Layer_2" xmlns="http://www.w3.org/2000/svg" xmlns:xlink="http://www.w3.org/1999/xlink" viewBox="0 0 26.32 44.33"><defs><style>.cls-1{fill:none;filter:url(#drop-shadow-1);}.cls-2{fill:#7a54b0;}.cls-3{fill:#c09ba5;}.cls-4{fill:#d8b4b9;}.cls-5{fill:#f0e6e6;}.cls-6{fill:#e861a8;}.cls-7{fill:#fdf3f8;}.cls-8{fill:#a78289;}.cls-9{fill:#815d62;}.cls-10{fill:#8f6a72;}</style><filter id="drop-shadow-1" filterUnits="userSpaceOnUse"><feOffset dx="1" dy="1"/><feGaussianBlur result="blur" stdDeviation="2"/><feFlood flood-color="#000" flood-opacity=".1"/><feComposite in2="blur" operator="in"/><feComposite in="SourceGraphic"/></filter></defs><g id="OBJECTS"><g class="cls-1"><path class="cls-7" d="m22.86,0H3.46C1.55,0,0,1.55,0,3.46v37.41c0,1.91,1.55,3.46,3.46,3.46h19.4c1.91,0,3.46-1.55,3.46-3.46V3.46c0-1.91-1.55-3.46-3.46-3.46Z"/><path class="cls-5" d="m26.32,3.46c0-1.91-1.55-3.46-3.46-3.46H3.46C1.55,0,0,1.55,0,3.46v37.41c0,1.12.53,2.12,1.36,2.75l24.96-24.96V3.46Z"/><polygon class="cls-5" points="13.59 44.33 26.32 31.6 26.32 26.06 8.05 44.33 13.59 44.33"/><path class="cls-5" d="m3.46,0C1.55,0,0,1.55,0,3.46v4.42L7.88,0H3.46Z"/><path class="cls-8" d="m26.32,37.41H0v3.46c0,1.91,1.55,3.46,3.46,3.46h19.4c1.91,0,3.46-1.55,3.46-3.46v-3.46Z"/><path class="cls-8" d="m22.86,0H3.46C1.55,0,0,1.55,0,3.46v2.08h26.32v-2.08c0-1.91-1.55-3.46-3.46-3.46Z"/><rect class="cls-4" y="5.54" width="2.77" height="31.86"/><path class="cls-10" d="m0,40.87c0,1.44.93,2.75,2.27,3.25.38.14.79.21,1.19.21h2.77c-1.63,0-2.99-1.12-3.36-2.64-.07-.27-.1-.55-.1-.82v-3.46H0v3.46Z"/><path class="cls-10" d="m2.77,3.46c0-1.91,1.55-3.46,3.46-3.46h-2.77C1.55,0,0,1.55,0,3.46v2.08h2.77v-2.08Z"/><path class="cls-3" d="m14.55,41.56h-2.77c-.38,0-.69-.31-.69-.69s.31-.69.69-.69h2.77c.38,0,.69.31.69.69s-.31.69-.69.69Z"/><path class="cls-9" d="m13.25,3.46h-.09c-.38,0-.69-.31-.69-.69s.31-.69.69-.69h.09c.38,0,.69.31.69.69s-.31.69-.69.69Z"/><path class="cls-9" d="m16.02,3.46h-.09c-.38,0-.69-.31-.69-.69s.31-.69.69-.69h.09c.38,0,.69.31.69.69s-.31.69-.69.69Z"/><path class="cls-9" d="m10.48,3.46h-.09c-.38,0-.69-.31-.69-.69s.31-.69.69-.69h.09c.38,0,.69.31.69.69s-.31.69-.69.69Z"/><path class="cls-2" d="m11.78,21.47h-7.62c-.38,0-.69-.31-.69-.69v-7.62c0-.38.31-.69.69-.69h7.62c.38,0,.69.31.69.69v7.62c0,.38-.31.69-.69.69Zm-6.93-1.39h6.23v-6.23h-6.23v6.23Z"/><path class="cls-2" d="m11.78,31.86h-7.62c-.38,0-.69-.31-.69-.69v-7.62c0-.38.31-.69.69-.69h7.62c.38,0,.69.31.69.69v7.62c0,.38-.31.69-.69.69Zm-6.93-1.39h6.23v-6.23h-6.23v6.23Z"/><path class="cls-2" d="m22.17,31.86h-7.62c-.38,0-.69-.31-.69-.69v-7.62c0-.38.31-.69.69-.69h7.62c.38,0,.69.31.69.69v7.62c0,.38-.31.69-.69.69Zm-6.93-1.39h6.23v-6.23h-6.23v6.23Z"/><path class="cls-6" d="m9.7,14.55h-3.46c-.38,0-.69.31-.69.69v3.46c0,.38.31.69.69.69h3.46c.38,0,.69-.31.69-.69v-3.46c0-.38-.31-.69-.69-.69Z"/><path class="cls-6" d="m9.7,24.94h-3.46c-.38,0-.69.31-.69.69v3.46c0,.38.31.69.69.69h3.46c.38,0,.69-.31.69-.69v-3.46c0-.38-.31-.69-.69-.69Z"/><path class="cls-6" d="m20.09,24.94h-3.46c-.38,0-.69.31-.69.69v3.46c0,.38.31.69.69.69h3.46c.38,0,.69-.31.69-.69v-3.46c0-.38-.31-.69-.69-.69Z"/><path class="cls-2" d="m22.17,17.32h-.69s0,0-.01,0c0,0,0,0-.01,0h-2.05v-1.39h1.39c.38,0,.69-.31.69-.69v-2.08c0-.38-.31-.69-.69-.69s-.69.31-.69.69v1.39h-1.39c-.38,0-.69.31-.69.69v2.08h-.69v-2.08c0-.38-.31-.69-.69-.69h-2.08c-.38,0-.69.31-.69.69s.31.69.69.69h1.39v2.08c0,.38.31.69.69.69h4.16v1.39h-2.77c0-.38-.31-.69-.69-.69s-.69.31-.69.69v.69c0,.38.31.69.69.69h4.16c.38,0,.69-.31.69-.69v-2.08c.38,0,.69-.31.69-.69s-.31-.69-.69-.69Z"/><path class="cls-2" d="m15.24,21.47h-.69c-.38,0-.69-.31-.69-.69s.31-.69.69-.69h.69c.38,0,.69.31.69.69s-.31.69-.69.69Z"/><path class="cls-2" d="m14.55,19.4c-.38,0-.69-.31-.69-.69v-.69c0-.38.31-.69.69-.69s.69.31.69.69v.69c0,.38-.31.69-.69.69Z"/><path class="cls-2" d="m15.24,13.85h-.69c-.38,0-.69-.31-.69-.69s.31-.69.69-.69h.69c.38,0,.69.31.69.69s-.31.69-.69.69Z"/><path class="cls-2" d="m17.4,13.85h-.09c-.38,0-.69-.31-.69-.69s.31-.69.69-.69h.09c.38,0,.69.31.69.69s-.31.69-.69.69Z"/></g></g></svg>